<?xml version="1.0" encoding="utf-8" ?>
<svg baseProfile="full" height="1800.0" version="1.1" width="910" xmlns="http://www.w3.org/2000/svg" xmlns:ev="http://www.w3.org/2001/xml-events" xmlns:xlink="http://www.w3.org/1999/xlink"><defs /><circle cx="25" cy="25.0" fill-opacity="0.0" r="20" stroke="rgb(0,0,0)" /><circle cx="25" cy="25.0" fill="rgb(21,0,0)" fill-opacity="1.0" r="17.0" /><text fill="white" style="font-size:10px; font-family:Arial" x="13" y="23.0">State</text><text fill="white" style="font-size:10px; font-family:Arial; font-weight: bold" x="19" y="35.0">0</text><text fill="black" style="font-size:10px; font-family:Arial" x="55" y="27.0">(breathjulius) and (hearthjulius)</text><circle cx="25" cy="25.0" fill-opacity="0.0" r="18.2" stroke="rgb(0,0,0)" /><circle cx="25" cy="75.0" fill-opacity="0.0" r="20" stroke="rgb(0,0,0)" /><circle cx="25" cy="75.0" fill="rgb(42,0,0)" fill-opacity="1.0" r="17.0" /><text fill="white" style="font-size:10px; font-family:Arial" x="13" y="73.0">State</text><text fill="white" style="font-size:10px; font-family:Arial; font-weight: bold" x="19" y="85.0">1</text><text fill="black" style="font-size:10px; font-family:Arial" x="55" y="77.0">(breathjulius) and (hearthfrank)</text><circle cx="25" cy="125.0" fill-opacity="0.0" r="20" stroke="rgb(0,0,0)" /><circle cx="25" cy="125.0" fill="rgb(63,0,0)" fill-opacity="1.0" r="17.0" /><text fill="white" style="font-size:10px; font-family:Arial" x="13" y="123.0">State</text><text fill="white" style="font-size:10px; font-family:Arial; font-weight: bold" x="19" y="135.0">2</text><text fill="black" style="font-size:10px; font-family:Arial" x="55" y="127.0">(breathjulius) and (hearthrobert)</text><circle cx="25" cy="175.0" fill-opacity="0.0" r="20" stroke="rgb(0,0,0)" /><circle cx="25" cy="175.0" fill="rgb(85,0,0)" fill-opacity="1.0" r="17.0" /><text fill="white" style="font-size:10px; font-family:Arial" x="13" y="173.0">State</text><text fill="white" style="font-size:10px; font-family:Arial; font-weight: bold" x="19" y="185.0">3</text><text fill="black" style="font-size:10px; font-family:Arial" x="55" y="177.0">(breathjulius) and (not(hearthjulius))</text><circle cx="25" cy="225.0" fill-opacity="0.0" r="20" stroke="rgb(0,0,0)" /><circle cx="25" cy="225.0" fill="rgb(106,0,0)" fill-opacity="1.0" r="17.0" /><text fill="white" style="font-size:10px; font-family:Arial" x="13" y="223.0">State</text><text fill="white" style="font-size:10px; font-family:Arial; font-weight: bold" x="19" y="235.0">4</text><text fill="black" style="font-size:10px; font-family:Arial" x="55" y="227.0">(breathjulius) and (not(hearthfrank))</text><circle cx="25" cy="275.0" fill-opacity="0.0" r="20" stroke="rgb(0,0,0)" /><circle cx="25" cy="275.0" fill="rgb(127,0,0)" fill-opacity="1.0" r="17.0" /><text fill="white" style="font-size:10px; font-family:Arial" x="13" y="273.0">State</text><text fill="white" style="font-size:10px; font-family:Arial; font-weight: bold" x="19" y="285.0">5</text><text fill="black" style="font-size:10px; font-family:Arial" x="55" y="277.0">(breathjulius) and (not(hearthrobert))</text><circle cx="25" cy="325.0" fill-opacity="0.0" r="20" stroke="rgb(0,0,0)" /><circle cx="25" cy="325.0" fill="rgb(148,0,0)" fill-opacity="1.0" r="17.0" /><text fill="white" style="font-size:10px; font-family:Arial" x="13" y="323.0">State</text><text fill="white" style="font-size:10px; font-family:Arial; font-weight: bold" x="19" y="335.0">6</text><text fill="black" style="font-size:10px; font-family:Arial" x="55" y="327.0">(breathfrank) and (hearthjulius)</text><circle cx="25" cy="375.0" fill-opacity="0.0" r="20" stroke="rgb(0,0,0)" /><circle cx="25" cy="375.0" fill="rgb(170,0,0)" fill-opacity="1.0" r="17.0" /><text fill="white" style="font-size:10px; font-family:Arial" x="13" y="373.0">State</text><text fill="white" style="font-size:10px; font-family:Arial; font-weight: bold" x="19" y="385.0">7</text><text fill="black" style="font-size:10px; font-family:Arial" x="55" y="377.0">(breathfrank) and (hearthfrank)</text><circle cx="25" cy="425.0" fill-opacity="0.0" r="20" stroke="rgb(0,0,0)" /><circle cx="25" cy="425.0" fill="rgb(191,0,0)" fill-opacity="1.0" r="17.0" /><text fill="white" style="font-size:10px; font-family:Arial" x="13" y="423.0">State</text><text fill="white" style="font-size:10px; font-family:Arial; font-weight: bold" x="19" y="435.0">8</text><text fill="black" style="font-size:10px; font-family:Arial" x="55" y="427.0">(breathfrank) and (hearthrobert)</text><circle cx="25" cy="475.0" fill-opacity="0.0" r="20" stroke="rgb(0,0,0)" /><circle cx="25" cy="475.0" fill="rgb(212,0,0)" fill-opacity="1.0" r="17.0" /><text fill="white" style="font-size:10px; font-family:Arial" x="13" y="473.0">State</text><text fill="white" style="font-size:10px; font-family:Arial; font-weight: bold" x="19" y="485.0">9</text><text fill="black" style="font-size:10px; font-family:Arial" x="55" y="477.0">(breathfrank) and (not(hearthjulius))</text><circle cx="25" cy="525.0" fill-opacity="0.0" r="20" stroke="rgb(0,0,0)" /><circle cx="25" cy="525.0" fill="rgb(233,0,0)" fill-opacity="1.0" r="17.0" /><text fill="white" style="font-size:10px; font-family:Arial" x="13" y="523.0">State</text><text fill="white" style="font-size:10px; font-family:Arial; font-weight: bold" x="19" y="535.0">10</text><text fill="black" style="font-size:10px; font-family:Arial" x="55" y="527.0">(breathfrank) and (not(hearthfrank))</text><circle cx="25" cy="575.0" fill-opacity="0.0" r="20" stroke="rgb(0,0,0)" /><circle cx="25" cy="575.0" fill="rgb(255,0,0)" fill-opacity="1.0" r="17.0" /><text fill="white" style="font-size:10px; font-family:Arial" x="13" y="573.0">State</text><text fill="white" style="font-size:10px; font-family:Arial; font-weight: bold" x="19" y="585.0">11</text><text fill="black" style="font-size:10px; font-family:Arial" x="55" y="577.0">(breathfrank) and (not(hearthrobert))</text><circle cx="25" cy="625.0" fill-opacity="0.0" r="20" stroke="rgb(0,0,0)" /><circle cx="25" cy="625.0" fill="rgb(0,21,0)" fill-opacity="1.0" r="17.0" /><text fill="white" style="font-size:10px; font-family:Arial" x="13" y="623.0">State</text><text fill="white" style="font-size:10px; font-family:Arial; font-weight: bold" x="19" y="635.0">12</text><text fill="black" style="font-size:10px; font-family:Arial" x="55" y="627.0">(breathrobert) and (hearthjulius)</text><circle cx="25" cy="675.0" fill-opacity="0.0" r="20" stroke="rgb(0,0,0)" /><circle cx="25" cy="675.0" fill="rgb(0,42,0)" fill-opacity="1.0" r="17.0" /><text fill="white" style="font-size:10px; font-family:Arial" x="13" y="673.0">State</text><text fill="white" style="font-size:10px; font-family:Arial; font-weight: bold" x="19" y="685.0">13</text><text fill="black" style="font-size:10px; font-family:Arial" x="55" y="677.0">(breathrobert) and (hearthfrank)</text><circle cx="25" cy="725.0" fill-opacity="0.0" r="20" stroke="rgb(0,0,0)" /><circle cx="25" cy="725.0" fill="rgb(0,63,0)" fill-opacity="1.0" r="17.0" /><text fill="white" style="font-size:10px; font-family:Arial" x="13" y="723.0">State</text><text fill="white" style="font-size:10px; font-family:Arial; font-weight: bold" x="19" y="735.0">14</text><text fill="black" style="font-size:10px; font-family:Arial" x="55" y="727.0">(breathrobert) and (hearthrobert)</text><circle cx="25" cy="775.0" fill-opacity="0.0" r="20" stroke="rgb(0,0,0)" /><circle cx="25" cy="775.0" fill="rgb(0,85,0)" fill-opacity="1.0" r="17.0" /><text fill="white" style="font-size:10px; font-family:Arial" x="13" y="773.0">State</text><text fill="white" style="font-size:10px; font-family:Arial; font-weight: bold" x="19" y="785.0">15</text><text fill="black" style="font-size:10px; font-family:Arial" x="55" y="777.0">(breathrobert) and (not(hearthjulius))</text><circle cx="25" cy="825.0" fill-opacity="0.0" r="20" stroke="rgb(0,0,0)" /><circle cx="25" cy="825.0" fill="rgb(0,106,0)" fill-opacity="1.0" r="17.0" /><text fill="white" style="font-size:10px; font-family:Arial" x="13" y="823.0">State</text><text fill="white" style="font-size:10px; font-family:Arial; font-weight: bold" x="19" y="835.0">16</text><text fill="black" style="font-size:10px; font-family:Arial" x="55" y="827.0">(breathrobert) and (not(hearthfrank))</text><circle cx="25" cy="875.0" fill-opacity="0.0" r="20" stroke="rgb(0,0,0)" /><circle cx="25" cy="875.0" fill="rgb(0,127,0)" fill-opacity="1.0" r="17.0" /><text fill="white" style="font-size:10px; font-family:Arial" x="13" y="873.0">State</text><text fill="white" style="font-size:10px; font-family:Arial; font-weight: bold" x="19" y="885.0">17</text><text fill="black" style="font-size:10px; font-family:Arial" x="55" y="877.0">(breathrobert) and (not(hearthrobert))</text><circle cx="25" cy="925.0" fill-opacity="0.0" r="20" stroke="rgb(0,0,0)" /><circle cx="25" cy="925.0" fill="rgb(0,148,0)" fill-opacity="1.0" r="17.0" /><text fill="white" style="font-size:10px; font-family:Arial" x="13" y="923.0">State</text><text fill="white" style="font-size:10px; font-family:Arial; font-weight: bold" x="19" y="935.0">18</text><text fill="black" style="font-size:10px; font-family:Arial" x="55" y="927.0">(not(breathjulius)) and (hearthjulius)</text><circle cx="25" cy="975.0" fill-opacity="0.0" r="20" stroke="rgb(0,0,0)" /><circle cx="25" cy="975.0" fill="rgb(0,170,0)" fill-opacity="1.0" r="17.0" /><text fill="white" style="font-size:10px; font-family:Arial" x="13" y="973.0">State</text><text fill="white" style="font-size:10px; font-family:Arial; font-weight: bold" x="19" y="985.0">19</text><text fill="black" style="font-size:10px; font-family:Arial" x="55" y="977.0">(not(breathjulius)) and (hearthfrank)</text><circle cx="25" cy="1025.0" fill-opacity="0.0" r="20" stroke="rgb(0,0,0)" /><circle cx="25" cy="1025.0" fill="rgb(0,191,0)" fill-opacity="1.0" r="17.0" /><text fill="white" style="font-size:10px; font-family:Arial" x="13" y="1023.0">State</text><text fill="white" style="font-size:10px; font-family:Arial; font-weight: bold" x="19" y="1035.0">20</text><text fill="black" style="font-size:10px; font-family:Arial" x="55" y="1027.0">(not(breathjulius)) and (hearthrobert)</text><circle cx="25" cy="1075.0" fill-opacity="0.0" r="20" stroke="rgb(0,0,0)" /><circle cx="25" cy="1075.0" fill="rgb(0,212,0)" fill-opacity="1.0" r="17.0" /><text fill="white" style="font-size:10px; font-family:Arial" x="13" y="1073.0">State</text><text fill="white" style="font-size:10px; font-family:Arial; font-weight: bold" x="19" y="1085.0">21</text><text fill="black" style="font-size:10px; font-family:Arial" x="55" y="1077.0">(not(breathjulius)) and (not(hearthjulius))</text><circle cx="25" cy="1075.0" fill-opacity="0.0" r="18.2" stroke="rgb(0,255,0)" /><circle cx="25" cy="1125.0" fill-opacity="0.0" r="20" stroke="rgb(0,0,0)" /><circle cx="25" cy="1125.0" fill="rgb(0,233,0)" fill-opacity="1.0" r="17.0" /><text fill="white" style="font-size:10px; font-family:Arial" x="13" y="1123.0">State</text><text fill="white" style="font-size:10px; font-family:Arial; font-weight: bold" x="19" y="1135.0">22</text><text fill="black" style="font-size:10px; font-family:Arial" x="55" y="1127.0">(not(breathjulius)) and (not(hearthfrank))</text><circle cx="25" cy="1175.0" fill-opacity="0.0" r="20" stroke="rgb(0,0,0)" /><circle cx="25" cy="1175.0" fill="rgb(0,255,0)" fill-opacity="1.0" r="17.0" /><text fill="white" style="font-size:10px; font-family:Arial" x="13" y="1173.0">State</text><text fill="white" style="font-size:10px; font-family:Arial; font-weight: bold" x="19" y="1185.0">23</text><text fill="black" style="font-size:10px; font-family:Arial" x="55" y="1177.0">(not(breathjulius)) and (not(hearthrobert))</text><circle cx="25" cy="1225.0" fill-opacity="0.0" r="20" stroke="rgb(0,0,0)" /><circle cx="25" cy="1225.0" fill="rgb(0,0,21)" fill-opacity="1.0" r="17.0" /><text fill="white" style="font-size:10px; font-family:Arial" x="13" y="1223.0">State</text><text fill="white" style="font-size:10px; font-family:Arial; font-weight: bold" x="19" y="1235.0">24</text><text fill="black" style="font-size:10px; font-family:Arial" x="55" y="1227.0">(not(breathfrank)) and (hearthjulius)</text><circle cx="25" cy="1275.0" fill-opacity="0.0" r="20" stroke="rgb(0,0,0)" /><circle cx="25" cy="1275.0" fill="rgb(0,0,42)" fill-opacity="1.0" r="17.0" /><text fill="white" style="font-size:10px; font-family:Arial" x="13" y="1273.0">State</text><text fill="white" style="font-size:10px; font-family:Arial; font-weight: bold" x="19" y="1285.0">25</text><text fill="black" style="font-size:10px; font-family:Arial" x="55" y="1277.0">(not(breathfrank)) and (hearthfrank)</text><circle cx="25" cy="1325.0" fill-opacity="0.0" r="20" stroke="rgb(0,0,0)" /><circle cx="25" cy="1325.0" fill="rgb(0,0,63)" fill-opacity="1.0" r="17.0" /><text fill="white" style="font-size:10px; font-family:Arial" x="13" y="1323.0">State</text><text fill="white" style="font-size:10px; font-family:Arial; font-weight: bold" x="19" y="1335.0">26</text><text fill="black" style="font-size:10px; font-family:Arial" x="55" y="1327.0">(not(breathfrank)) and (hearthrobert)</text><circle cx="25" cy="1375.0" fill-opacity="0.0" r="20" stroke="rgb(0,0,0)" /><circle cx="25" cy="1375.0" fill="rgb(0,0,85)" fill-opacity="1.0" r="17.0" /><text fill="white" style="font-size:10px; font-family:Arial" x="13" y="1373.0">State</text><text fill="white" style="font-size:10px; font-family:Arial; font-weight: bold" x="19" y="1385.0">27</text><text fill="black" style="font-size:10px; font-family:Arial" x="55" y="1377.0">(not(breathfrank)) and (not(hearthjulius))</text><circle cx="25" cy="1425.0" fill-opacity="0.0" r="20" stroke="rgb(0,0,0)" /><circle cx="25" cy="1425.0" fill="rgb(0,0,106)" fill-opacity="1.0" r="17.0" /><text fill="white" style="font-size:10px; font-family:Arial" x="13" y="1423.0">State</text><text fill="white" style="font-size:10px; font-family:Arial; font-weight: bold" x="19" y="1435.0">28</text><text fill="black" style="font-size:10px; font-family:Arial" x="55" y="1427.0">(not(breathfrank)) and (not(hearthfrank))</text><circle cx="25" cy="1475.0" fill-opacity="0.0" r="20" stroke="rgb(0,0,0)" /><circle cx="25" cy="1475.0" fill="rgb(0,0,127)" fill-opacity="1.0" r="17.0" /><text fill="white" style="font-size:10px; font-family:Arial" x="13" y="1473.0">State</text><text fill="white" style="font-size:10px; font-family:Arial; font-weight: bold" x="19" y="1485.0">29</text><text fill="black" style="font-size:10px; font-family:Arial" x="55" y="1477.0">(not(breathfrank)) and (not(hearthrobert))</text><circle cx="25" cy="1525.0" fill-opacity="0.0" r="20" stroke="rgb(0,0,0)" /><circle cx="25" cy="1525.0" fill="rgb(0,0,148)" fill-opacity="1.0" r="17.0" /><text fill="white" style="font-size:10px; font-family:Arial" x="13" y="1523.0">State</text><text fill="white" style="font-size:10px; font-family:Arial; font-weight: bold" x="19" y="1535.0">30</text><text fill="black" style="font-size:10px; font-family:Arial" x="55" y="1527.0">(not(breathrobert)) and (hearthjulius)</text><circle cx="25" cy="1575.0" fill-opacity="0.0" r="20" stroke="rgb(0,0,0)" /><circle cx="25" cy="1575.0" fill="rgb(0,0,170)" fill-opacity="1.0" r="17.0" /><text fill="white" style="font-size:10px; font-family:Arial" x="13" y="1573.0">State</text><text fill="white" style="font-size:10px; font-family:Arial; font-weight: bold" x="19" y="1585.0">31</text><text fill="black" style="font-size:10px; font-family:Arial" x="55" y="1577.0">(not(breathrobert)) and (hearthfrank)</text><circle cx="25" cy="1625.0" fill-opacity="0.0" r="20" stroke="rgb(0,0,0)" /><circle cx="25" cy="1625.0" fill="rgb(0,0,191)" fill-opacity="1.0" r="17.0" /><text fill="white" style="font-size:10px; font-family:Arial" x="13" y="1623.0">State</text><text fill="white" style="font-size:10px; font-family:Arial; font-weight: bold" x="19" y="1635.0">32</text><text fill="black" style="font-size:10px; font-family:Arial" x="55" y="1627.0">(not(breathrobert)) and (hearthrobert)</text><circle cx="25" cy="1675.0" fill-opacity="0.0" r="20" stroke="rgb(0,0,0)" /><circle cx="25" cy="1675.0" fill="rgb(0,0,212)" fill-opacity="1.0" r="17.0" /><text fill="white" style="font-size:10px; font-family:Arial" x="13" y="1673.0">State</text><text fill="white" style="font-size:10px; font-family:Arial; font-weight: bold" x="19" y="1685.0">33</text><text fill="black" style="font-size:10px; font-family:Arial" x="55" y="1677.0">(not(breathrobert)) and (not(hearthjulius))</text><circle cx="25" cy="1725.0" fill-opacity="0.0" r="20" stroke="rgb(0,0,0)" /><circle cx="25" cy="1725.0" fill="rgb(0,0,233)" fill-opacity="1.0" r="17.0" /><text fill="white" style="font-size:10px; font-family:Arial" x="13" y="1723.0">State</text><text fill="white" style="font-size:10px; font-family:Arial; font-weight: bold" x="19" y="1735.0">34</text><text fill="black" style="font-size:10px; font-family:Arial" x="55" y="1727.0">(not(breathrobert)) and (not(hearthfrank))</text><circle cx="25" cy="1775.0" fill-opacity="0.0" r="20" stroke="rgb(0,0,0)" /><circle cx="25" cy="1775.0" fill="rgb(0,0,255)" fill-opacity="1.0" r="17.0" /><text fill="white" style="font-size:10px; font-family:Arial" x="13" y="1773.0">State</text><text fill="white" style="font-size:10px; font-family:Arial; font-weight: bold" x="19" y="1785.0">35</text><text fill="black" style="font-size:10px; font-family:Arial" x="55" y="1777.0">(not(breathrobert)) and (not(hearthrobert))</text></svg>